HIERARCHY
ROOT root     
{
	OFFSET 0.0000 0.0000 0.0000
	CHANNELS 6 Xposition Yposition Zposition Zrotation Yrotation Xrotation
	JOINT pelvis   
	{
		OFFSET 0.0000 0.0000 0.0000
		CHANNELS 3 Zrotation Yrotation Xrotation
		JOINT thorax   
		{
			OFFSET 0.0000 23.0750 -5.0000
			CHANNELS 3 Zrotation Yrotation Xrotation
			JOINT rclavicle
			{
				OFFSET 0.0000 28.0009 0.0000
				CHANNELS 3 Zrotation Yrotation Xrotation
				JOINT rhumerus 
				{
					OFFSET -18.5725 5.5939 0.0000
					CHANNELS 3 Zrotation Yrotation Xrotation
					JOINT rradius  
					{
						OFFSET -24.8459 0.0000 0.0000
						CHANNELS 3 Zrotation Yrotation Xrotation
						JOINT rhand    
						{
							OFFSET -24.5477 0.0000 0.0000
							CHANNELS 3 Zrotation Yrotation Xrotation
							End Site
							{
								OFFSET -8.1826 0.0000 0.0000
							}
						}
					}
				}
			}
			JOINT lclavicle
			{
				OFFSET 0.0000 28.0009 0.0000
				CHANNELS 3 Zrotation Yrotation Xrotation
				JOINT lhumerus 
				{
					OFFSET 18.5725 5.5939 0.0000
					CHANNELS 3 Zrotation Yrotation Xrotation
					JOINT lradius  
					{
						OFFSET 24.8459 0.0000 0.0000
						CHANNELS 3 Zrotation Yrotation Xrotation
						JOINT lhand    
						{
							OFFSET 24.5477 0.0000 0.0000
							CHANNELS 3 Zrotation Yrotation Xrotation
							End Site
							{
								OFFSET 8.1826 0.0000 0.0000
							}
						}
					}
				}
			}
			JOINT head     
			{
				OFFSET 0.0000 35.2030 0.0000
				CHANNELS 3 Zrotation Yrotation Xrotation
				End Site
				{
					OFFSET 0.0000 11.7343 0.0000
				}
			}
		}
		JOINT rfemur   
		{
			OFFSET -8.2817 0.0000 0.0000
			CHANNELS 3 Zrotation Yrotation Xrotation
			JOINT rtibia   
			{
				OFFSET 0.0000 -43.3627 0.0000
				CHANNELS 3 Zrotation Yrotation Xrotation
				JOINT rfoot    
				{
					OFFSET 0.0000 -38.2947 0.0000
					CHANNELS 3 Zrotation Yrotation Xrotation
					JOINT rtoes    
					{
						OFFSET 0.0000 0.0000 16.6054
						CHANNELS 3 Zrotation Yrotation Xrotation
						End Site
						{
							OFFSET 0.0000 0.0000 5.5351
						}
					}
				}
			}
		}
		JOINT lfemur   
		{
			OFFSET 8.2817 0.0000 0.0000
			CHANNELS 3 Zrotation Yrotation Xrotation
			JOINT ltibia   
			{
				OFFSET 0.0000 -43.3627 0.0000
				CHANNELS 3 Zrotation Yrotation Xrotation
				JOINT lfoot    
				{
					OFFSET 0.0000 -38.2947 0.0000
					CHANNELS 3 Zrotation Yrotation Xrotation
					JOINT ltoes    
					{
						OFFSET 0.0000 0.0000 16.6054
						CHANNELS 3 Zrotation Yrotation Xrotation
						End Site
						{
							OFFSET 0.0000 0.0000 5.5351
						}
					}
				}
			}
		}
	}
}
MOTION
Frames: 21
Frame Time: .0333333
69.127 73.084 12.474 75.3877 -85.8214 -32.1572 0 -0 0 0.151299 -7.53644 -7.04517 23.6675 -2.81441 5.68261e-06 52.0038 16.0559 -33.2579 -0 14.7161 -0 -32.8054 24.5543 -7.33073 -19.8493 5.54819 6.25256e-06 -52.4118 -11.3842 -21.1325 1.59751e-07 -27.2198 -6.59834e-07 43.8907 -6.88313 -2.7761 -0.180797 -1.021 -27.8673 -4.25217 -3.90544 -57.1752 -0 -0 66.5598 -0.00016002 -15.3494 -26.6607 7.02195 -1.37327e-05 -62.5544 -2.38041 -0.693702 -58.4036 -0 -0 65.5824 -0.000212976 20.2328 -25.7025 -9.08168 7.03776e-05 -53.1635 
67.341 74.243 12.401 75.7173 -85.7811 -34.3028 0 -0 0 -0.168098 -7.48535 -6.9718 23.3495 -3.16723 -8.9118e-06 51.463 15.7884 -32.7565 -0 16.4012 -0 -33.1663 23.8665 -7.20238 -19.498 5.85863 -1.5914e-06 -51.5322 -11.2866 -21.3897 1.68384e-07 -28.4039 -6.65355e-07 43.736 -6.81533 -2.73798 -0.325606 -1.1375 -24.9233 -4.18805 -4.18016 -52.7573 -0 -0 63.1993 -0.000105268 -14.419 -24.8003 6.15571 -3.17006e-05 -64.3916 -2.51419 -0.129689 -54.1661 -0 -0 62.6103 8.25374e-05 19.1841 -23.4993 -7.89838 3.23469e-05 -55.907 
65.478 75.473 12.327 75.2624 -85.7353 -35.7814 0 -0 0 -0.455598 -7.45892 -6.80251 23.042 -3.54302 1.05102e-05 50.901 15.5012 -32.156 -0 18.2037 -0 -33.4854 23.201 -7.06756 -19.1849 6.15327 -1.00709e-05 -50.6394 -11.1831 -21.6174 0 -29.6407 0 43.5552 -6.76966 -2.70726 -0.474692 -1.26762 -21.7993 -4.09521 -4.6365 -48.1877 -0 -0 59.6977 5.38679e-05 -13.3423 -22.2895 5.14029 3.4091e-05 -67.0345 -2.60599 0.506145 -49.8035 -0 -0 59.516 8.72573e-05 18.0982 -20.7051 -6.59142 1.06341e-06 -59.2618 
63.552 76.772 12.248 73.8745 -85.6585 -36.3988 0 -0 0 -0.6866 -7.45978 -6.55055 22.7356 -3.95558 -7.71313e-06 50.3182 15.235 -31.4782 -0 20.0758 -0 -33.751 22.5934 -6.93562 -18.91 6.46989 1.2991e-05 -49.7481 -11.1245 -21.7803 1.87538e-07 -30.9133 -6.78229e-07 43.3428 -6.75019 -2.68498 -0.637111 -1.4069 -18.526 -3.97269 -5.28757 -43.5313 -0 -0 56.077 4.24338e-06 -12.1567 -19.0421 4.0203 -3.57503e-05 -70.5615 -2.61954 1.21614 -45.3842 -0 -0 56.3357 -3.36508e-05 17.0144 -17.2565 -5.18685 -3.45883e-05 -63.2206 
61.579 78.137 12.163 71.4892 -85.6021 -36.0729 0 -0 0 -0.847539 -7.48624 -6.23717 22.4182 -4.38652 3.36435e-06 49.7218 14.98 -30.779 -1.24247e-07 22.0014 -6.39158e-07 -33.9519 22.0716 -6.81441 -18.6661 6.77065 7.74888e-06 -48.8684 -11.0528 -21.8824 1.98396e-07 -32.2676 -6.85847e-07 43.094 -6.73625 -2.6624 -0.817717 -1.55224 -15.1416 -3.82913 -6.13927 -38.8578 -0 -0 52.3711 2.22502e-05 -10.8951 -15.0155 2.85493 1.22315e-05 -74.792 -2.52175 1.99164 -40.9765 -0 -0 53.1071 5.05364e-06 15.9637 -13.1252 -3.7167 -4.18947e-06 -67.5665 
59.581 79.559 12.068 68.1344 -85.5399 -34.7769 0 -0 0 -0.932267 -7.53506 -5.8935 22.0866 -4.83129 5.18146e-06 49.1133 14.7454 -30.0938 -0 23.9624 -0 -34.091 21.6564 -6.71238 -18.442 7.05076 3.97265e-05 -48.0117 -10.954 -21.9165 0 -33.7254 0 42.8116 -6.71014 -2.633 -1.01612 -1.69749 -11.693 -3.67955 -7.18258 -34.255 -0 -0 48.6259 -4.9014e-06 -9.58577 -10.2009 1.71308 -3.15553e-05 -79.4778 -2.28731 2.81084 -36.663 -0 -0 49.8741 -8.26559e-06 14.9684 -8.32627 -2.21706 -3.20673e-05 -71.9973 
57.582 81.031 11.964 64.0063 -85.4906 -32.6559 0 -0 0 -0.943782 -7.60199 -5.56106 21.742 -5.29617 -6.23334e-06 48.4962 14.5541 -29.4443 -0 25.9387 -0 -34.1809 21.3588 -6.63667 -18.2261 7.33086 6.16934e-05 -47.1829 -10.8438 -21.8712 0 -35.2964 0 42.5047 -6.65803 -2.59199 -1.22677 -1.83359 -8.24097 -3.54338 -8.39021 -29.8298 -0 -0 44.9013 -3.08108e-06 -8.24654 -4.63814 0.671504 -9.98092e-07 -84.3201 -1.90591 3.63827 -32.5359 -0 -0 46.6836 -5.41657e-06 14.0416 -2.91677 -0.729111 5.14539e-06 -76.183 
55.611 82.542 11.85 59.3879 -85.4312 -29.9303 0 -0 0 -0.89558 -7.67464 -5.28702 21.3891 -5.7631 1.82281e-05 47.8698 14.3899 -28.8678 -1.6498e-07 27.9407 -6.63161e-07 -34.2318 21.1814 -6.59062 -18.0034 7.57874 6.11913e-05 -46.3886 -10.6645 -21.764 0 -37.0273 0 42.186 -6.55762 -2.53176 -1.43911 -1.95349 -4.84797 -3.43965 -9.71547 -25.6906 -0 -0 41.2683 -1.55212e-06 -6.88184 1.56076 -0.188305 -4.72805e-07 -88.7675 -1.38648 4.42801 -28.6843 -0 -0 43.5839 8.94013e-06 13.1863 2.97891 0.697607 6.07679e-06 -79.6303 
53.693 84.077 11.728 54.5878 -85.3978 -26.8582 0 -0 0 -0.807609 -7.74015 -5.11965 21.0411 -6.22911 -2.26804e-05 47.2264 14.2597 -28.3822 -0 29.9716 -0 -34.2633 21.1213 -6.57803 -17.7627 7.80071 3.36879e-05 -45.6244 -10.4106 -21.6087 0 -38.937 0 41.8743 -6.39946 -2.45061 -1.63835 -2.04866 -1.58245 -3.38131 -11.0936 -21.9507 -0 -0 37.8097 -2.50845e-06 -5.49196 8.21131 -0.786798 4.52866e-06 -92.3598 -0.759934 5.12302 -25.1965 -0 -0 40.6199 3.25746e-05 12.4078 9.17893 2.00994 -2.71284e-05 -81.9674 
51.854 85.623 11.6 50.019 -85.3746 -23.793 0 -0 0 -0.703004 -7.784 -5.10103 20.7077 -6.68718 -3.45902e-05 46.5613 14.1627 -28.0023 -0 32.0407 -0 -34.2889 21.1646 -6.59712 -17.4951 7.99696 4.67859e-05 -44.885 -10.0706 -21.4249 0 -41.0431 0 41.5867 -6.18104 -2.34913 -1.80867 -2.11159 1.48783 -3.37088 -12.4462 -18.7103 -0 -0 34.6115 1.39424e-05 -4.07943 15.0461 -1.0607 -1.95298e-06 -94.6858 -0.0744027 5.66018 -22.1447 -0 -0 37.8404 6.47663e-05 11.7127 15.4423 3.15957 -2.26204e-06 -82.924 
50.115 87.164 11.469 46.0078 -85.3634 -21.016 0 -0 0 -0.605492 -7.79395 -5.25937 20.4031 -7.12607 1.22123e-05 45.8661 14.0929 -27.7424 -0 34.1664 -0 -34.3231 21.2938 -6.64516 -17.1993 8.16228 1.57613e-05 -44.1566 -9.62968 -21.2466 0 -43.361 0 41.3383 -5.90694 -2.23008 -1.93519 -2.13785 4.30149 -3.39948 -13.6942 -16.0488 -0 -0 31.7631 7.30215e-06 -2.66154 21.7284 -0.985995 -6.00769e-06 -95.5436 0.611471 5.97921 -19.5837 -0 -0 35.2913 1.14504e-05 11.1137 21.4908 4.11617 1.07876e-05 -82.4591 
48.488 88.686 11.338 42.761 -85.3923 -18.7148 0 -0 0 -0.5312 -7.76402 -5.60413 20.1387 -7.54689 -5.48285e-05 45.132 14.0654 -27.6086 -0 36.3559 -0 -34.3823 21.4887 -6.71954 -16.8794 8.32062 4.2772e-05 -43.4304 -9.11922 -21.0965 0 -45.8755 0 41.1444 -5.59587 -2.1017 -2.00597 -2.12409 6.80246 -3.44574 -14.7587 -14.0222 -0 -0 29.3483 1.30234e-05 -1.28346 27.8855 -0.600407 3.68366e-06 -94.8228 1.24386 6.03171 -17.5534 -0 -0 33.0271 5.94936e-05 10.6194 27.0366 4.87142 -2.65978e-05 -80.6371 
46.982 90.175 11.209 40.3655 -85.4563 -16.9683 0 -0 0 -0.487191 -7.69432 -6.1247 19.9208 -7.94129 -1.55019e-05 44.3507 14.0788 -27.6094 -0 38.6273 -0 -34.4702 21.7212 -6.81222 -16.5463 8.47712 -1.72046e-06 -42.6846 -8.54973 -21.0077 3.75355e-07 -48.5779 -8.31742e-07 41.0095 -5.26938 -1.97184 -2.0152 -2.07079 8.94959 -3.48298 -15.5826 -12.6505 -0 -0 27.4275 -1.61782e-07 -0.0239001 33.1921 -0.0130998 1.29603e-08 -92.7603 1.78479 5.79443 -16.0653 -0 -0 31.1016 4.02758e-05 10.2321 31.8328 5.43843 -1.03728e-05 -77.7885 
45.593 91.622 11.083 38.8478 -85.5771 -15.8266 0 -0 0 -0.476502 -7.59018 -6.79063 19.7534 -8.29497 3.97712e-05 43.5193 14.1213 -27.7565 -0 40.9979 -0 -34.5943 21.9584 -6.91459 -16.215 8.62442 -2.64723e-05 -41.906 -7.92136 -21.0194 0 -51.4574 0 40.9284 -4.94868 -1.84769 -1.96186 -1.982 10.7188 -3.49208 -16.1307 -11.9092 -0 -0 26.0142 6.23014e-06 1.0093 37.4301 0.613497 1.29603e-07 -89.8746 2.21514 5.26256 -15.1037 -0 -0 29.5445 -3.76838e-05 9.95859 35.7229 5.85346 -3.12033e-05 -74.4569 
44.315 93.018 10.961 38.124 -85.7475 -15.2355 0 -0 0 -0.490596 -7.46516 -7.55884 19.6337 -8.61114 7.03561e-05 42.6357 14.2057 -28.0525 -0 43.4696 -0 -34.7585 22.1706 -7.01814 -15.8974 8.7905 2.56303e-05 -41.0797 -7.28666 -21.1496 0 -54.4709 0 40.8963 -4.66343 -1.73963 -1.85152 -1.86201 12.0968 -3.45895 -16.392 -11.7469 -0 -0 25.087 1.59441e-05 1.70884 40.508 1.11019 -5.12156e-06 -86.685 2.54013 4.47015 -14.6445 -0 -0 28.3885 1.85572e-05 9.78084 38.6165 6.14067 -3.7586e-05 -71.039 
43.137 94.356 10.844 38.1451 -85.9262 -15.1737 0 -0 0 -0.525509 -7.33262 -8.37894 19.5523 -8.88376 4.63755e-05 41.7068 14.3245 -28.5027 -3.40248e-07 46.0508 -8.00583e-07 -34.9631 22.3277 -7.11324 -15.6026 8.97921 8.03895e-05 -40.2017 -6.66846 -21.4181 0 -57.5825 0 40.8978 -4.43371 -1.65391 -1.69268 -1.71834 13.0912 -3.38878 -16.3807 -12.0809 -0 -0 24.5792 -8.42069e-06 2.00266 42.4515 1.35201 3.49882e-06 -83.7244 2.77417 3.46985 -14.6409 -0 -0 27.6323 -5.5799e-06 9.68729 40.5143 6.32801 -2.38534e-05 -67.9515 
42.047 95.629 10.735 38.8525 -86.1357 -15.6404 0 -0 0 -0.578033 -7.20596 -9.19659 19.4938 -9.11047 -5.5706e-05 40.7457 14.4699 -29.113 -3.77691e-07 48.7364 -8.3384e-07 -35.2076 22.3992 -7.18965 -15.3323 9.19636 -3.6879e-05 -39.2723 -6.09338 -21.8415 0 -60.7529 0 40.916 -4.27246 -1.59448 -1.49704 -1.55946 13.7192 -3.29739 -16.1354 -12.8148 -0 -0 24.404 -9.3534e-06 1.8811 43.3559 1.2917 3.36555e-06 -81.3097 2.93649 2.33572 -15.0367 -0 -0 27.2483 -2.25231e-05 9.66526 41.4804 6.43609 -2.49053e-05 -65.4351 
41.031 96.833 10.634 40.1402 -86.321 -16.5608 0 -0 0 -0.641692 -7.09626 -9.96152 19.4379 -9.28651 -9.66946e-05 39.7676 14.6261 -29.8865 -0 51.5219 -0 -35.4949 22.3629 -7.23993 -15.0864 9.43512 5.76709e-05 -38.2889 -5.56755 -22.4189 -8.24579e-07 -63.9503 5.14754e-07 40.9465 -4.17985 -1.5611 -1.27931 -1.39482 14.0153 -3.20287 -15.7158 -13.8461 -0 -0 24.4628 -5.55923e-06 1.39867 43.3587 0.960399 4.19588e-06 -79.5403 3.04884 1.15979 -15.7681 -0 -0 27.1866 -9.35826e-07 9.69319 41.63 6.47364 2.18102e-05 -63.5842 
40.075 97.962 10.541 41.889 -86.4937 -17.883 0 -0 0 -0.716471 -7.01252 -10.6057 19.3572 -9.42348 1.91202e-05 38.8029 14.8042 -30.8308 -0 54.3799 -0 -35.8109 22.2171 -7.25995 -14.852 9.73035 -5.71508e-05 -37.2855 -5.17119 -23.1739 6.066e-07 -67.1089 -9.1458e-07 40.9375 -4.16566 -1.55548 -1.05349 -1.23185 14.0082 -3.12711 -15.2092 -15.0654 -0 -0 24.6631 -3.83323e-06 0.670101 42.6018 0.453598 2.39244e-06 -78.2691 3.12152 0.044593 -16.7549 -0 -0 27.3887 -1.46679e-05 9.73151 41.0877 6.4307 9.85717e-06 -62.0801 
39.163 99.014 10.456 43.8137 -86.6307 -19.3526 0 -0 0 -0.789436 -6.958 -11.0962 19.2388 -9.51079 -2.68309e-05 37.8575 14.9706 -31.947 -0 57.2928 -0 -36.165 21.952 -7.24691 -14.6366 10.0464 -3.24486e-05 -36.2459 -4.85935 -24.0884 -1.03184e-06 -70.2171 7.25425e-07 40.9216 -4.20448 -1.56928 -0.837389 -1.08077 13.7514 -3.07045 -14.6914 -16.384 -0 -0 24.8968 -3.53306e-07 -0.201704 41.2815 -0.1331 7.60384e-07 -77.4788 3.16628 -0.934246 -17.9247 -0 -0 27.7516 -2.18856e-05 9.78056 40.0706 6.33205 8.89643e-05 -61.1611 
38.284 99.99 10.379 45.5959 -86.7226 -20.6941 0 -0 0 -0.853069 -6.93324 -11.3933 19.0635 -9.55366 1.51993e-05 36.9456 15.1197 -33.2357 -0 60.2277 -0 -36.5538 21.5815 -7.20373 -14.4418 10.3857 -4.94188e-05 -35.1819 -4.65278 -25.1696 0 -73.2426 0 40.8857 -4.28395 -1.59748 -0.64551 -0.948695 13.2871 -3.02841 -14.2475 -17.7238 -0 -0 25.086 -2.49755e-06 -1.1008 39.5817 -0.701395 4.57415e-06 -76.8939 3.18193 -1.70868 -19.2016 -0 -0 28.1892 -4.00385e-05 9.81477 38.7587 6.18114 -5.50612e-05 -60.5433 
